# Blender v3.0.0 OBJ File: ''
# www.blender.org
o Cylinder
v -1.000000 0.000000 0.000000
v -1.000000 0.000000 20.000000
v -0.995974 0.089639 0.000000
v -0.995974 0.089639 20.000000
v -0.983930 0.178557 0.000000
v -0.983930 0.178557 20.000000
v -0.963963 0.266037 0.000000
v -0.963963 0.266037 20.000000
v -0.936235 0.351375 0.000000
v -0.936235 0.351375 20.000000
v -0.900969 0.433884 0.000000
v -0.900969 0.433884 20.000000
v -0.858449 0.512899 0.000000
v -0.858449 0.512899 20.000000
v -0.809017 0.587785 0.000000
v -0.809017 0.587785 20.000000
v -0.753071 0.657939 0.000000
v -0.753071 0.657939 20.000000
v -0.691063 0.722795 0.000000
v -0.691063 0.722795 20.000000
v -0.623490 0.781832 0.000000
v -0.623490 0.781832 20.000000
v -0.550897 0.834573 0.000000
v -0.550897 0.834573 20.000000
v -0.473869 0.880596 0.000000
v -0.473869 0.880596 20.000000
v -0.393025 0.919528 0.000000
v -0.393025 0.919528 20.000000
v -0.309017 0.951057 0.000000
v -0.309017 0.951057 20.000000
v -0.222521 0.974928 0.000000
v -0.222521 0.974928 20.000000
v -0.134233 0.990950 0.000000
v -0.134233 0.990950 20.000000
v -0.044865 0.998993 0.000000
v -0.044865 0.998993 20.000000
v 0.044865 0.998993 0.000000
v 0.044865 0.998993 20.000000
v 0.134233 0.990950 0.000000
v 0.134233 0.990950 20.000000
v 0.222521 0.974928 0.000000
v 0.222521 0.974928 20.000000
v 0.309017 0.951056 0.000000
v 0.309017 0.951056 20.000000
v 0.393025 0.919528 0.000000
v 0.393025 0.919528 20.000000
v 0.473869 0.880596 0.000000
v 0.473869 0.880596 20.000000
v 0.550897 0.834573 0.000000
v 0.550897 0.834573 20.000000
v 0.623490 0.781832 0.000000
v 0.623490 0.781832 20.000000
v 0.691063 0.722795 0.000000
v 0.691063 0.722795 20.000000
v 0.753071 0.657939 0.000000
v 0.753071 0.657939 20.000000
v 0.809017 0.587785 0.000000
v 0.809017 0.587785 20.000000
v 0.858449 0.512899 0.000000
v 0.858449 0.512899 20.000000
v 0.900969 0.433884 0.000000
v 0.900969 0.433884 20.000000
v 0.936235 0.351375 0.000000
v 0.936235 0.351375 20.000000
v 0.963963 0.266037 0.000000
v 0.963963 0.266037 20.000000
v 0.983930 0.178557 0.000000
v 0.983930 0.178557 20.000000
v 0.995974 0.089639 0.000000
v 0.995974 0.089639 20.000000
v 1.000000 -0.000000 0.000000
v 1.000000 -0.000000 20.000000
v 0.995974 -0.089639 0.000000
v 0.995974 -0.089639 20.000000
v 0.983930 -0.178557 0.000000
v 0.983930 -0.178557 20.000000
v 0.963963 -0.266037 0.000000
v 0.963963 -0.266037 20.000000
v 0.936235 -0.351375 0.000000
v 0.936235 -0.351375 20.000000
v 0.900969 -0.433884 0.000000
v 0.900969 -0.433884 20.000000
v 0.858449 -0.512899 0.000000
v 0.858449 -0.512899 20.000000
v 0.809017 -0.587785 0.000000
v 0.809017 -0.587785 20.000000
v 0.753072 -0.657939 0.000000
v 0.753072 -0.657939 20.000000
v 0.691063 -0.722795 0.000000
v 0.691063 -0.722795 20.000000
v 0.623490 -0.781832 0.000000
v 0.623490 -0.781832 20.000000
v 0.550897 -0.834573 0.000000
v 0.550897 -0.834573 20.000000
v 0.473869 -0.880595 0.000000
v 0.473869 -0.880595 20.000000
v 0.393025 -0.919528 0.000000
v 0.393025 -0.919528 20.000000
v 0.309017 -0.951056 0.000000
v 0.309017 -0.951056 20.000000
v 0.222521 -0.974928 0.000000
v 0.222521 -0.974928 20.000000
v 0.134233 -0.990950 0.000000
v 0.134233 -0.990950 20.000000
v 0.044865 -0.998993 0.000000
v 0.044865 -0.998993 20.000000
v -0.044865 -0.998993 0.000000
v -0.044865 -0.998993 20.000000
v -0.134233 -0.990950 0.000000
v -0.134233 -0.990950 20.000000
v -0.222521 -0.974928 0.000000
v -0.222521 -0.974928 20.000000
v -0.309017 -0.951056 0.000000
v -0.309017 -0.951056 20.000000
v -0.393025 -0.919528 0.000000
v -0.393025 -0.919528 20.000000
v -0.473869 -0.880595 0.000000
v -0.473869 -0.880595 20.000000
v -0.550897 -0.834573 0.000000
v -0.550897 -0.834573 20.000000
v -0.623490 -0.781832 0.000000
v -0.623490 -0.781832 20.000000
v -0.691063 -0.722795 0.000000
v -0.691063 -0.722795 20.000000
v -0.753071 -0.657939 0.000000
v -0.753071 -0.657939 20.000000
v -0.809017 -0.587785 0.000000
v -0.809017 -0.587785 20.000000
v -0.858449 -0.512899 0.000000
v -0.858449 -0.512899 20.000000
v -0.900969 -0.433884 0.000000
v -0.900969 -0.433884 20.000000
v -0.936235 -0.351375 0.000000
v -0.936235 -0.351375 20.000000
v -0.963963 -0.266037 0.000000
v -0.963963 -0.266037 20.000000
v -0.983930 -0.178557 0.000000
v -0.983930 -0.178557 20.000000
v -0.995974 -0.089639 0.000000
v -0.995974 -0.089639 20.000000
vt 1.000000 1.000000
vt 0.985714 0.500000
vt 1.000000 0.500000
vt 0.985714 1.000000
vt 0.971429 0.500000
vt 0.971429 1.000000
vt 0.957143 0.500000
vt 0.957143 1.000000
vt 0.942857 0.500000
vt 0.942857 1.000000
vt 0.928571 0.500000
vt 0.928571 1.000000
vt 0.914286 0.500000
vt 0.914286 1.000000
vt 0.900000 0.500000
vt 0.900000 1.000000
vt 0.885714 0.500000
vt 0.885714 1.000000
vt 0.871428 0.500000
vt 0.871428 1.000000
vt 0.857143 0.500000
vt 0.857143 1.000000
vt 0.842857 0.500000
vt 0.842857 1.000000
vt 0.828571 0.500000
vt 0.828571 1.000000
vt 0.814285 0.500000
vt 0.814285 1.000000
vt 0.800000 0.500000
vt 0.800000 1.000000
vt 0.785714 0.500000
vt 0.785714 1.000000
vt 0.771428 0.500000
vt 0.771428 1.000000
vt 0.757142 0.500000
vt 0.757142 1.000000
vt 0.742857 0.500000
vt 0.742857 1.000000
vt 0.728571 0.500000
vt 0.728571 1.000000
vt 0.714285 0.500000
vt 0.714285 1.000000
vt 0.699999 0.500000
vt 0.699999 1.000000
vt 0.685714 0.500000
vt 0.685714 1.000000
vt 0.671428 0.500000
vt 0.671428 1.000000
vt 0.657142 0.500000
vt 0.657142 1.000000
vt 0.642856 0.500000
vt 0.642856 1.000000
vt 0.628571 0.500000
vt 0.628571 1.000000
vt 0.614285 0.500000
vt 0.614285 1.000000
vt 0.599999 0.500000
vt 0.599999 1.000000
vt 0.585713 0.500000
vt 0.585713 1.000000
vt 0.571428 0.500000
vt 0.571428 1.000000
vt 0.557142 0.500000
vt 0.557142 1.000000
vt 0.542856 0.500000
vt 0.542856 1.000000
vt 0.528570 0.500000
vt 0.528570 1.000000
vt 0.514285 0.500000
vt 0.514285 1.000000
vt 0.499999 0.500000
vt 0.499999 1.000000
vt 0.485713 0.500000
vt 0.485713 1.000000
vt 0.471428 0.500000
vt 0.471428 1.000000
vt 0.457142 0.500000
vt 0.457142 1.000000
vt 0.442856 0.500000
vt 0.442856 1.000000
vt 0.428570 0.500000
vt 0.428570 1.000000
vt 0.414285 0.500000
vt 0.414285 1.000000
vt 0.399999 0.500000
vt 0.399999 1.000000
vt 0.385713 0.500000
vt 0.385713 1.000000
vt 0.371428 0.500000
vt 0.371428 1.000000
vt 0.357142 0.500000
vt 0.357142 1.000000
vt 0.342856 0.500000
vt 0.342856 1.000000
vt 0.328570 0.500000
vt 0.328570 1.000000
vt 0.314285 0.500000
vt 0.314285 1.000000
vt 0.299999 0.500000
vt 0.299999 1.000000
vt 0.285713 0.500000
vt 0.285713 1.000000
vt 0.271428 0.500000
vt 0.271428 1.000000
vt 0.257142 0.500000
vt 0.257142 1.000000
vt 0.242856 0.500000
vt 0.242856 1.000000
vt 0.228570 0.500000
vt 0.228570 1.000000
vt 0.214285 0.500000
vt 0.214285 1.000000
vt 0.199999 0.500000
vt 0.199999 1.000000
vt 0.185713 0.500000
vt 0.185713 1.000000
vt 0.171428 0.500000
vt 0.171428 1.000000
vt 0.157142 0.500000
vt 0.157142 1.000000
vt 0.142856 0.500000
vt 0.142856 1.000000
vt 0.128570 0.500000
vt 0.128570 1.000000
vt 0.114285 0.500000
vt 0.114285 1.000000
vt 0.099999 0.500000
vt 0.099999 1.000000
vt 0.085713 0.500000
vt 0.085713 1.000000
vt 0.071428 0.500000
vt 0.071428 1.000000
vt 0.057142 0.500000
vt 0.057142 1.000000
vt 0.042856 0.500000
vt 0.042856 1.000000
vt 0.028570 0.500000
vt 0.062360 0.399638
vt 0.391068 0.055836
vt 0.461343 0.363728
vt 0.028570 1.000000
vt 0.014285 0.500000
vt 0.014285 1.000000
vt -0.000001 0.500000
vt 0.686151 0.481351
vt 0.950298 0.382215
vt 0.592095 0.069263
vt 0.292854 0.486143
vt 0.271513 0.489034
vt 0.250000 0.490000
vt 0.228487 0.489034
vt 0.207146 0.486143
vt 0.186151 0.481351
vt 0.126904 0.456028
vt 0.165670 0.474696
vt 0.145868 0.466233
vt 0.108932 0.444164
vt 0.092095 0.430737
vt 0.076529 0.415855
vt 0.049702 0.382215
vt 0.021746 0.324164
vt 0.038657 0.363729
vt 0.029313 0.344326
vt 0.016017 0.303405
vt 0.012172 0.282216
vt 0.010242 0.260768
vt 0.010242 0.239232
vt 0.012172 0.217784
vt 0.016017 0.196595
vt 0.021746 0.175836
vt 0.029313 0.155674
vt 0.038657 0.136271
vt 0.076529 0.084145
vt 0.049702 0.117785
vt 0.062360 0.100362
vt 0.092095 0.069263
vt 0.108932 0.055836
vt 0.126904 0.043972
vt 0.145868 0.033767
vt 0.165670 0.025304
vt 0.186151 0.018649
vt 0.207146 0.013857
vt 0.228487 0.010966
vt 0.250000 0.010000
vt 0.271513 0.010966
vt 0.292854 0.013857
vt 0.313849 0.018649
vt 0.334330 0.025304
vt 0.354132 0.033767
vt 0.373096 0.043972
vt 0.407905 0.069263
vt 0.423471 0.084145
vt 0.437640 0.100362
vt 0.450298 0.117785
vt 0.461343 0.136272
vt 0.483983 0.196595
vt 0.470687 0.155674
vt 0.478254 0.175836
vt 0.487828 0.217784
vt 0.489758 0.239232
vt 0.489758 0.260768
vt 0.487828 0.282216
vt 0.483983 0.303405
vt 0.478254 0.324164
vt 0.470687 0.344326
vt 0.450298 0.382215
vt 0.437640 0.399638
vt 0.423471 0.415855
vt 0.407905 0.430737
vt 0.391068 0.444164
vt 0.373096 0.456028
vt 0.354132 0.466233
vt 0.334330 0.474696
vt 0.313849 0.481351
vt -0.000001 1.000000
vt 0.728487 0.489034
vt 0.750000 0.490000
vt 0.771513 0.489034
vt 0.792854 0.486143
vt 0.813849 0.481351
vt 0.834330 0.474696
vt 0.854132 0.466233
vt 0.873096 0.456028
vt 0.891068 0.444164
vt 0.907905 0.430737
vt 0.923471 0.415855
vt 0.937640 0.399638
vt 0.961343 0.363728
vt 0.983983 0.303405
vt 0.970687 0.344326
vt 0.978254 0.324164
vt 0.987828 0.282216
vt 0.989758 0.260768
vt 0.989758 0.239232
vt 0.987828 0.217784
vt 0.983983 0.196595
vt 0.978254 0.175836
vt 0.970687 0.155674
vt 0.961343 0.136272
vt 0.950298 0.117785
vt 0.937640 0.100362
vt 0.923471 0.084145
vt 0.907905 0.069263
vt 0.891068 0.055836
vt 0.873096 0.043972
vt 0.854132 0.033767
vt 0.834330 0.025304
vt 0.813849 0.018649
vt 0.792854 0.013857
vt 0.771513 0.010966
vt 0.750000 0.010000
vt 0.728487 0.010966
vt 0.707146 0.013857
vt 0.686151 0.018649
vt 0.665670 0.025304
vt 0.645868 0.033767
vt 0.626904 0.043972
vt 0.608932 0.055836
vt 0.576529 0.084145
vt 0.562360 0.100362
vt 0.549702 0.117785
vt 0.538657 0.136271
vt 0.529313 0.155674
vt 0.512172 0.217784
vt 0.521746 0.175836
vt 0.516017 0.196595
vt 0.510242 0.239232
vt 0.510242 0.260768
vt 0.512172 0.282216
vt 0.516017 0.303405
vt 0.521746 0.324164
vt 0.529313 0.344326
vt 0.538657 0.363729
vt 0.549702 0.382215
vt 0.562360 0.399638
vt 0.576529 0.415855
vt 0.592095 0.430737
vt 0.608932 0.444164
vt 0.626904 0.456028
vt 0.645868 0.466233
vt 0.665670 0.474696
vt 0.707146 0.486143
vn -0.9990 0.0449 0.0000
vn -0.9909 0.1342 0.0000
vn -0.9749 0.2225 0.0000
vn -0.9511 0.3090 0.0000
vn -0.9195 0.3930 0.0000
vn -0.8806 0.4739 0.0000
vn -0.8346 0.5509 0.0000
vn -0.7818 0.6235 0.0000
vn -0.7228 0.6911 0.0000
vn -0.6579 0.7531 0.0000
vn -0.5878 0.8090 0.0000
vn -0.5129 0.8584 0.0000
vn -0.4339 0.9010 0.0000
vn -0.3514 0.9362 0.0000
vn -0.2660 0.9640 0.0000
vn -0.1786 0.9839 0.0000
vn -0.0896 0.9960 0.0000
vn -0.0000 1.0000 0.0000
vn 0.0896 0.9960 0.0000
vn 0.1786 0.9839 0.0000
vn 0.2660 0.9640 0.0000
vn 0.3514 0.9362 0.0000
vn 0.4339 0.9010 0.0000
vn 0.5129 0.8584 0.0000
vn 0.5878 0.8090 0.0000
vn 0.6579 0.7531 0.0000
vn 0.7228 0.6911 0.0000
vn 0.7818 0.6235 0.0000
vn 0.8346 0.5509 0.0000
vn 0.8806 0.4739 0.0000
vn 0.9195 0.3930 0.0000
vn 0.9511 0.3090 0.0000
vn 0.9749 0.2225 0.0000
vn 0.9909 0.1342 0.0000
vn 0.9990 0.0449 0.0000
vn 0.9990 -0.0449 0.0000
vn 0.9909 -0.1342 0.0000
vn 0.9749 -0.2225 0.0000
vn 0.9511 -0.3090 0.0000
vn 0.9195 -0.3930 0.0000
vn 0.8806 -0.4739 0.0000
vn 0.8346 -0.5509 0.0000
vn 0.7818 -0.6235 0.0000
vn 0.7228 -0.6911 0.0000
vn 0.6579 -0.7531 0.0000
vn 0.5878 -0.8090 0.0000
vn 0.5129 -0.8584 0.0000
vn 0.4339 -0.9010 0.0000
vn 0.3514 -0.9362 0.0000
vn 0.2660 -0.9640 0.0000
vn 0.1786 -0.9839 0.0000
vn 0.0896 -0.9960 0.0000
vn 0.0000 -1.0000 0.0000
vn -0.0896 -0.9960 0.0000
vn -0.1786 -0.9839 0.0000
vn -0.2660 -0.9640 0.0000
vn -0.3514 -0.9362 0.0000
vn -0.4339 -0.9010 0.0000
vn -0.5129 -0.8584 0.0000
vn -0.5878 -0.8090 0.0000
vn -0.6579 -0.7531 0.0000
vn -0.7228 -0.6911 0.0000
vn -0.7818 -0.6235 0.0000
vn -0.8346 -0.5509 0.0000
vn -0.8806 -0.4739 0.0000
vn -0.9195 -0.3930 0.0000
vn -0.9511 -0.3090 0.0000
vn -0.9749 -0.2225 0.0000
vn 0.0000 0.0000 1.0000
vn -0.9909 -0.1342 0.0000
vn -0.9990 -0.0449 0.0000
vn 0.0000 0.0000 -1.0000
vn -0.0003 0.0000 1.0000
vn 0.0003 0.0000 1.0000
vn 0.0007 0.0000 1.0000
vn -0.0002 0.0000 1.0000
vn 0.0004 0.0000 1.0000
vn 0.0001 0.0000 1.0000
vn -0.0001 0.0000 1.0000
s off
f 2/1/1 3/2/1 1/3/1
f 4/4/2 5/5/2 3/2/2
f 6/6/3 7/7/3 5/5/3
f 8/8/4 9/9/4 7/7/4
f 10/10/5 11/11/5 9/9/5
f 12/12/6 13/13/6 11/11/6
f 14/14/7 15/15/7 13/13/7
f 16/16/8 17/17/8 15/15/8
f 18/18/9 19/19/9 17/17/9
f 20/20/10 21/21/10 19/19/10
f 22/22/11 23/23/11 21/21/11
f 24/24/12 25/25/12 23/23/12
f 26/26/13 27/27/13 25/25/13
f 28/28/14 29/29/14 27/27/14
f 30/30/15 31/31/15 29/29/15
f 32/32/16 33/33/16 31/31/16
f 34/34/17 35/35/17 33/33/17
f 36/36/18 37/37/18 35/35/18
f 38/38/19 39/39/19 37/37/19
f 40/40/20 41/41/20 39/39/20
f 42/42/21 43/43/21 41/41/21
f 44/44/22 45/45/22 43/43/22
f 46/46/23 47/47/23 45/45/23
f 48/48/24 49/49/24 47/47/24
f 50/50/25 51/51/25 49/49/25
f 52/52/26 53/53/26 51/51/26
f 54/54/27 55/55/27 53/53/27
f 56/56/28 57/57/28 55/55/28
f 58/58/29 59/59/29 57/57/29
f 60/60/30 61/61/30 59/59/30
f 62/62/31 63/63/31 61/61/31
f 64/64/32 65/65/32 63/63/32
f 66/66/33 67/67/33 65/65/33
f 68/68/34 69/69/34 67/67/34
f 70/70/35 71/71/35 69/69/35
f 72/72/36 73/73/36 71/71/36
f 74/74/37 75/75/37 73/73/37
f 76/76/38 77/77/38 75/75/38
f 78/78/39 79/79/39 77/77/39
f 80/80/40 81/81/40 79/79/40
f 82/82/41 83/83/41 81/81/41
f 84/84/42 85/85/42 83/83/42
f 86/86/43 87/87/43 85/85/43
f 88/88/44 89/89/44 87/87/44
f 90/90/45 91/91/45 89/89/45
f 92/92/46 93/93/46 91/91/46
f 94/94/47 95/95/47 93/93/47
f 96/96/48 97/97/48 95/95/48
f 98/98/49 99/99/49 97/97/49
f 100/100/50 101/101/50 99/99/50
f 102/102/51 103/103/51 101/101/51
f 104/104/52 105/105/52 103/103/52
f 106/106/53 107/107/53 105/105/53
f 108/108/54 109/109/54 107/107/54
f 110/110/55 111/111/55 109/109/55
f 112/112/56 113/113/56 111/111/56
f 114/114/57 115/115/57 113/113/57
f 116/116/58 117/117/58 115/115/58
f 118/118/59 119/119/59 117/117/59
f 120/120/60 121/121/60 119/119/60
f 122/122/61 123/123/61 121/121/61
f 124/124/62 125/125/62 123/123/62
f 126/126/63 127/127/63 125/125/63
f 128/128/64 129/129/64 127/127/64
f 130/130/65 131/131/65 129/129/65
f 132/132/66 133/133/66 131/131/66
f 134/134/67 135/135/67 133/133/67
f 136/136/68 137/137/68 135/135/68
f 122/138/69 58/139/69 26/140/69
f 138/141/70 139/142/70 137/137/70
f 140/143/71 1/144/71 139/142/71
f 135/145/72 23/146/72 87/147/72
f 2/1/1 4/4/1 3/2/1
f 4/4/2 6/6/2 5/5/2
f 6/6/3 8/8/3 7/7/3
f 8/8/4 10/10/4 9/9/4
f 10/10/5 12/12/5 11/11/5
f 12/12/6 14/14/6 13/13/6
f 14/14/7 16/16/7 15/15/7
f 16/16/8 18/18/8 17/17/8
f 18/18/9 20/20/9 19/19/9
f 20/20/10 22/22/10 21/21/10
f 22/22/11 24/24/11 23/23/11
f 24/24/12 26/26/12 25/25/12
f 26/26/13 28/28/13 27/27/13
f 28/28/14 30/30/14 29/29/14
f 30/30/15 32/32/15 31/31/15
f 32/32/16 34/34/16 33/33/16
f 34/34/17 36/36/17 35/35/17
f 36/36/18 38/38/18 37/37/18
f 38/38/19 40/40/19 39/39/19
f 40/40/20 42/42/20 41/41/20
f 42/42/21 44/44/21 43/43/21
f 44/44/22 46/46/22 45/45/22
f 46/46/23 48/48/23 47/47/23
f 48/48/24 50/50/24 49/49/24
f 50/50/25 52/52/25 51/51/25
f 52/52/26 54/54/26 53/53/26
f 54/54/27 56/56/27 55/55/27
f 56/56/28 58/58/28 57/57/28
f 58/58/29 60/60/29 59/59/29
f 60/60/30 62/62/30 61/61/30
f 62/62/31 64/64/31 63/63/31
f 64/64/32 66/66/32 65/65/32
f 66/66/33 68/68/33 67/67/33
f 68/68/34 70/70/34 69/69/34
f 70/70/35 72/72/35 71/71/35
f 72/72/36 74/74/36 73/73/36
f 74/74/37 76/76/37 75/75/37
f 76/76/38 78/78/38 77/77/38
f 78/78/39 80/80/39 79/79/39
f 80/80/40 82/82/40 81/81/40
f 82/82/41 84/84/41 83/83/41
f 84/84/42 86/86/42 85/85/42
f 86/86/43 88/88/43 87/87/43
f 88/88/44 90/90/44 89/89/44
f 90/90/45 92/92/45 91/91/45
f 92/92/46 94/94/46 93/93/46
f 94/94/47 96/96/47 95/95/47
f 96/96/48 98/98/48 97/97/48
f 98/98/49 100/100/49 99/99/49
f 100/100/50 102/102/50 101/101/50
f 102/102/51 104/104/51 103/103/51
f 104/104/52 106/106/52 105/105/52
f 106/106/53 108/108/53 107/107/53
f 108/108/54 110/110/54 109/109/54
f 110/110/55 112/112/55 111/111/55
f 112/112/56 114/114/56 113/113/56
f 114/114/57 116/116/57 115/115/57
f 116/116/58 118/118/58 117/117/58
f 118/118/59 120/120/59 119/119/59
f 120/120/60 122/122/60 121/121/60
f 122/122/61 124/124/61 123/123/61
f 124/124/62 126/126/62 125/125/62
f 126/126/63 128/128/63 127/127/63
f 128/128/64 130/130/64 129/129/64
f 130/130/65 132/132/65 131/131/65
f 132/132/66 134/134/66 133/133/66
f 134/134/67 136/136/67 135/135/67
f 136/136/68 138/141/68 137/137/68
f 6/148/73 4/149/73 2/150/73
f 2/150/69 140/151/69 6/148/69
f 140/151/69 138/152/69 6/148/69
f 138/152/69 136/153/69 130/154/69
f 136/153/69 134/155/69 130/154/69
f 134/155/69 132/156/69 130/154/69
f 130/154/69 128/157/69 126/158/69
f 126/158/69 124/159/69 130/154/69
f 124/159/69 122/138/69 130/154/69
f 122/138/69 120/160/69 114/161/69
f 120/160/69 118/162/69 114/161/69
f 118/162/69 116/163/69 114/161/69
f 114/161/69 112/164/69 110/165/69
f 110/165/69 108/166/69 114/161/69
f 108/166/69 106/167/69 114/161/69
f 106/167/69 104/168/69 102/169/69
f 102/169/69 100/170/69 106/167/69
f 100/170/69 98/171/69 106/167/69
f 98/171/69 96/172/69 90/173/69
f 96/172/69 94/174/69 90/173/69
f 94/174/69 92/175/69 90/173/69
f 90/173/69 88/176/69 86/177/69
f 86/177/69 84/178/69 90/173/69
f 84/178/69 82/179/69 90/173/69
f 82/179/73 80/180/73 78/181/73
f 78/181/74 76/182/74 74/183/74
f 74/183/75 72/184/75 70/185/75
f 70/185/69 68/186/69 74/183/69
f 68/186/76 66/187/76 74/183/76
f 66/187/76 64/188/76 58/139/76
f 64/188/77 62/189/77 58/139/77
f 62/189/73 60/190/73 58/139/73
f 58/139/69 56/191/69 54/192/69
f 54/192/69 52/193/69 50/194/69
f 50/194/69 48/195/69 42/196/69
f 48/195/69 46/197/69 42/196/69
f 46/197/69 44/198/69 42/196/69
f 42/196/69 40/199/69 38/200/69
f 38/200/69 36/201/69 42/196/69
f 36/201/69 34/202/69 42/196/69
f 34/202/69 32/203/69 30/204/69
f 30/204/69 28/205/69 34/202/69
f 28/205/69 26/140/69 34/202/69
f 26/140/69 24/206/69 22/207/69
f 22/207/69 20/208/69 26/140/69
f 20/208/69 18/209/69 26/140/69
f 18/209/69 16/210/69 14/211/69
f 14/211/69 12/212/69 18/209/69
f 12/212/69 10/213/69 18/209/69
f 10/213/69 8/214/69 138/152/69
f 8/214/78 6/148/78 138/152/78
f 82/179/69 78/181/69 90/173/69
f 78/181/69 74/183/69 90/173/69
f 58/139/79 54/192/79 50/194/79
f 138/152/69 130/154/69 10/213/69
f 130/154/69 122/138/69 10/213/69
f 122/138/69 114/161/69 106/167/69
f 106/167/69 98/171/69 90/173/69
f 74/183/69 66/187/69 58/139/69
f 58/139/69 50/194/69 42/196/69
f 42/196/69 34/202/69 26/140/69
f 26/140/69 18/209/69 10/213/69
f 122/138/69 106/167/69 90/173/69
f 90/173/69 74/183/69 58/139/69
f 58/139/69 42/196/69 26/140/69
f 26/140/69 10/213/69 122/138/69
f 122/138/69 90/173/69 58/139/69
f 138/141/70 140/143/70 139/142/70
f 140/143/71 2/215/71 1/144/71
f 139/216/72 1/217/72 3/218/72
f 3/218/72 5/219/72 139/216/72
f 5/219/72 7/220/72 139/216/72
f 7/220/72 9/221/72 11/222/72
f 11/222/72 13/223/72 15/224/72
f 15/224/72 17/225/72 19/226/72
f 19/226/72 21/227/72 23/146/72
f 23/146/72 25/228/72 31/229/72
f 25/228/72 27/230/72 31/229/72
f 27/230/72 29/231/72 31/229/72
f 31/229/72 33/232/72 35/233/72
f 35/233/72 37/234/72 39/235/72
f 39/235/72 41/236/72 43/237/72
f 43/237/72 45/238/72 47/239/72
f 47/239/72 49/240/72 51/241/72
f 51/241/72 53/242/72 47/239/72
f 53/242/72 55/243/72 47/239/72
f 55/243/72 57/244/72 59/245/72
f 59/245/72 61/246/72 63/247/72
f 63/247/72 65/248/72 67/249/72
f 67/249/72 69/250/72 71/251/72
f 71/251/72 73/252/72 75/253/72
f 75/253/72 77/254/72 79/255/72
f 79/255/72 81/256/72 87/147/72
f 81/256/72 83/257/72 87/147/72
f 83/257/72 85/258/72 87/147/72
f 87/147/72 89/259/72 91/260/72
f 91/260/72 93/261/72 95/262/72
f 95/262/72 97/263/72 103/264/72
f 97/263/72 99/265/72 103/264/72
f 99/265/72 101/266/72 103/264/72
f 103/264/72 105/267/72 107/268/72
f 107/268/72 109/269/72 111/270/72
f 111/270/72 113/271/72 115/272/72
f 115/272/72 117/273/72 119/274/72
f 119/274/72 121/275/72 123/276/72
f 123/276/72 125/277/72 127/278/72
f 127/278/72 129/279/72 135/145/72
f 129/279/72 131/280/72 135/145/72
f 131/280/72 133/281/72 135/145/72
f 135/145/72 137/282/72 139/216/72
f 7/220/72 11/222/72 15/224/72
f 15/224/72 19/226/72 7/220/72
f 19/226/72 23/146/72 7/220/72
f 31/229/72 35/233/72 23/146/72
f 35/233/72 39/235/72 23/146/72
f 39/235/72 43/237/72 47/239/72
f 55/243/72 59/245/72 63/247/72
f 63/247/72 67/249/72 71/251/72
f 71/251/72 75/253/72 87/147/72
f 75/253/72 79/255/72 87/147/72
f 87/147/72 91/260/72 103/264/72
f 91/260/72 95/262/72 103/264/72
f 103/264/72 107/268/72 111/270/72
f 111/270/72 115/272/72 119/274/72
f 119/274/72 123/276/72 135/145/72
f 123/276/72 127/278/72 135/145/72
f 135/145/72 139/216/72 7/220/72
f 39/235/72 47/239/72 55/243/72
f 55/243/72 63/247/72 87/147/72
f 63/247/72 71/251/72 87/147/72
f 103/264/72 111/270/72 87/147/72
f 111/270/72 119/274/72 87/147/72
f 135/145/72 7/220/72 23/146/72
f 23/146/72 39/235/72 87/147/72
f 39/235/72 55/243/72 87/147/72
f 119/274/72 135/145/72 87/147/72
